<svg width="6" height="6" viewBox="0 0 6 6" fill="none" xmlns="http://www.w3.org/2000/svg">
<path fill-rule="evenodd" clip-rule="evenodd" d="M5.14645 0.146454C5.34171 -0.0488079 5.65829 -0.0488079 5.85355 0.146454C6.04882 0.341716 6.04882 0.658299 5.85355 0.853561L3.70711 3.00001L5.85355 5.14645C6.04882 5.34172 6.04882 5.6583 5.85355 5.85356C5.65829 6.04882 5.34171 6.04882 5.14645 5.85356L3 3.70711L0.853553 5.85356C0.658291 6.04882 0.341709 6.04882 0.146447 5.85356C-0.0488157 5.6583 -0.0488157 5.34172 0.146447 5.14645L2.29289 3.00001L0.146447 0.853561C-0.0488155 0.658299 -0.0488155 0.341716 0.146447 0.146454C0.341709 -0.0488079 0.658291 -0.0488079 0.853553 0.146454L3 2.2929L5.14645 0.146454Z" fill="#658EFF"/>
</svg>
