<svg width="6" height="6" viewBox="0 0 6 6" fill="none" xmlns="http://www.w3.org/2000/svg">
<path fill-rule="evenodd" clip-rule="evenodd" d="M5.14645 0.14621C5.34171 -0.0490521 5.65829 -0.0490521 5.85355 0.14621C6.04882 0.341472 6.04882 0.658055 5.85355 0.853317L3.70711 2.99976L5.85355 5.14621C6.04882 5.34147 6.04882 5.65805 5.85355 5.85332C5.65829 6.04858 5.34171 6.04858 5.14645 5.85332L3 3.70687L0.853553 5.85332C0.658291 6.04858 0.341709 6.04858 0.146447 5.85332C-0.0488157 5.65805 -0.0488157 5.34147 0.146447 5.14621L2.29289 2.99976L0.146447 0.853317C-0.0488155 0.658055 -0.0488155 0.341472 0.146447 0.14621C0.341709 -0.0490521 0.658291 -0.0490521 0.853553 0.14621L3 2.29266L5.14645 0.14621Z" fill="#FFBBC3"/>
</svg>
