<svg width="14" height="13" viewBox="0 0 14 13" fill="none" xmlns="http://www.w3.org/2000/svg">
<path d="M13.4523 1.17302H5.11144C4.88213 0.491946 4.23793 -0.00012207 3.48051 -0.00012207C2.7231 -0.00012207 2.0789 0.491946 1.84958 1.17302H0.547635C0.245194 1.17302 0 1.41822 0 1.72066C0 2.0231 0.245194 2.26829 0.547635 2.26829H1.84962C2.07893 2.94937 2.72313 3.44144 3.48055 3.44144C4.23797 3.44144 4.88217 2.94937 5.11148 2.26829H13.4524C13.7548 2.26829 14 2.0231 14 1.72066C14 1.41822 13.7548 1.17302 13.4523 1.17302V1.17302ZM3.48051 2.34617C3.13561 2.34617 2.855 2.06556 2.855 1.72066C2.855 1.37576 3.13561 1.09515 3.48051 1.09515C3.82541 1.09515 4.10602 1.37576 4.10602 1.72066C4.10602 2.06556 3.82541 2.34617 3.48051 2.34617Z" fill="white"/>
<path d="M13.4523 5.70482H12.1503C11.921 5.02375 11.2768 4.53168 10.5194 4.53168C9.76203 4.53168 9.11783 5.02375 8.88852 5.70482H0.547635C0.245194 5.70482 0 5.95002 0 6.25246C0 6.5549 0.245194 6.80009 0.547635 6.80009H8.88852C9.11783 7.48117 9.76207 7.97324 10.5194 7.97324C11.2768 7.97324 11.9211 7.48117 12.1504 6.80009H13.4524C13.7548 6.80009 14 6.5549 14 6.25246C14 5.95002 13.7548 5.70482 13.4523 5.70482ZM10.5194 6.87797C10.1745 6.87797 9.89394 6.59736 9.89394 6.25246C9.89394 5.90756 10.1745 5.62695 10.5194 5.62695C10.8644 5.62695 11.145 5.90756 11.145 6.25246C11.145 6.59736 10.8644 6.87797 10.5194 6.87797Z" fill="white"/>
<path d="M13.4523 10.2366H7.45777C7.22845 9.55555 6.58425 9.06348 5.82684 9.06348C5.06942 9.06348 4.42522 9.55555 4.19591 10.2366H0.547635C0.245194 10.2366 0 10.4818 0 10.7843C0 11.0867 0.245194 11.3319 0.547635 11.3319H4.19591C4.42522 12.013 5.06942 12.505 5.82684 12.505C6.58425 12.505 7.22845 12.013 7.45777 11.3319H13.4524C13.7548 11.3319 14 11.0867 14 10.7843C14 10.4818 13.7548 10.2366 13.4523 10.2366ZM5.82684 11.4098C5.48194 11.4098 5.20133 11.1292 5.20133 10.7843C5.20133 10.4394 5.48194 10.1588 5.82684 10.1588C6.17174 10.1588 6.45235 10.4394 6.45235 10.7843C6.45235 11.1292 6.17174 11.4098 5.82684 11.4098V11.4098Z" fill="white"/>
</svg>
