<svg width="894" height="290" viewBox="0 0 894 290" fill="none" xmlns="http://www.w3.org/2000/svg">
<path fill-rule="evenodd" clip-rule="evenodd" d="M-4.00006 264.788C71.23 300.907 203.516 297.623 254.471 252.132C292.26 218.396 278.048 193.361 263.913 168.46C254.515 151.903 245.15 135.406 251.128 116.449C252.462 112.22 253.978 107.801 255.533 103.269C271.428 56.93 291.395 -1.2786 162.606 10.1771C97.1818 15.9966 36.8975 49.718 -4.00006 90.9355V264.788Z" fill="#8EFFE5"/>
<path fill-rule="evenodd" clip-rule="evenodd" d="M894.325 54.5979C869.312 21.6118 830.696 0.461304 787.365 0.461304C711.958 0.461304 650.828 64.5167 650.828 143.533C650.828 222.549 711.958 286.605 787.365 286.605C830.696 286.605 869.312 265.454 894.325 232.468V54.5979Z" fill="#A3FFAC"/>
</svg>
