<svg width="21" height="20" viewBox="0 0 21 20" fill="none" xmlns="http://www.w3.org/2000/svg">
<path fill-rule="evenodd" clip-rule="evenodd" d="M14.3035 0.750301H5.65449C2.63949 0.750301 0.750488 2.8843 0.750488 5.9043V14.0533C0.750488 17.0733 2.63149 19.2073 5.65449 19.2073H14.3025C17.3265 19.2073 19.2075 17.0733 19.2075 14.0533V5.9043C19.2075 2.8843 17.3265 0.750301 14.3035 0.750301Z" stroke="#A5B4CB" stroke-width="1.5" stroke-linecap="round" stroke-linejoin="round"/>
<path opacity="0.4" fill-rule="evenodd" clip-rule="evenodd" d="M8.70345 6.7855C8.70345 7.8045 7.87645 8.6315 6.85745 8.6315C5.83945 8.6315 5.01245 7.8045 5.01245 6.7855C5.01245 5.7665 5.83945 4.9395 6.85745 4.9395C7.87645 4.9395 8.70345 5.7665 8.70345 6.7855Z" stroke="#A5B4CB" stroke-width="1.5" stroke-linecap="round" stroke-linejoin="round"/>
<path opacity="0.4" d="M19.457 12.9286C18.463 12.0636 17.598 11.0226 16.458 10.3356C15.316 9.64856 14.089 10.0726 13.297 11.0976C12.532 12.0886 12.054 13.4216 10.899 14.0466C9.476 14.8176 8.64 13.5746 7.453 13.0766C6.128 12.5216 5.122 13.5196 4.348 14.4786C3.573 15.4386 2.788 16.3886 2 17.3386" stroke="#A5B4CB" stroke-width="1.5" stroke-linecap="round" stroke-linejoin="round"/>
</svg>
