<svg width="12" height="12" viewBox="0 0 12 12" fill="none" xmlns="http://www.w3.org/2000/svg">
<path fill-rule="evenodd" clip-rule="evenodd" d="M6.75 1.00006C6.75 0.447776 6.30228 6.10352e-05 5.75 6.10352e-05C5.19772 6.10352e-05 4.75 0.447776 4.75 1.00006V4.75006H1C0.447715 4.75006 0 5.19778 0 5.75006C0 6.30235 0.447715 6.75006 1 6.75006H4.75V10.5001C4.75 11.0523 5.19772 11.5001 5.75 11.5001C6.30228 11.5001 6.75 11.0523 6.75 10.5001V6.75006H10.5C11.0523 6.75006 11.5 6.30235 11.5 5.75006C11.5 5.19778 11.0523 4.75006 10.5 4.75006H6.75V1.00006Z" fill="white"/>
</svg>
