<svg width="12" height="12" viewBox="0 0 12 12" fill="none" xmlns="http://www.w3.org/2000/svg">
<path d="M6.82988 2.76862C6.76767 2.83049 6.71829 2.9041 6.6846 2.98521C6.6509 3.06631 6.63355 3.15331 6.63355 3.24117C6.63355 3.32903 6.6509 3.41602 6.6846 3.49713C6.71829 3.57823 6.76767 3.65185 6.82988 3.71372L8.10426 4.9916C8.16597 5.05399 8.23938 5.1035 8.32026 5.13729C8.40114 5.17108 8.4879 5.18848 8.57552 5.18848C8.66314 5.18848 8.7499 5.17108 8.83078 5.13729C8.91166 5.1035 8.98507 5.05399 9.04677 4.9916L11.7548 2.2761C11.8274 2.21696 11.8867 2.14311 11.9288 2.05939C11.971 1.97567 11.995 1.88396 11.9993 1.79029C12.0036 1.69661 11.9881 1.60308 11.9539 1.51582C11.9196 1.42856 11.8674 1.34954 11.8006 1.28394C11.7337 1.21834 11.6538 1.16765 11.5661 1.13517C11.4784 1.1027 11.3848 1.08919 11.2915 1.09552C11.1982 1.10184 11.1072 1.12787 11.0247 1.17189C10.9421 1.21592 10.8697 1.27694 10.8123 1.35096L8.57552 3.58061L7.77239 2.76862C7.71069 2.70623 7.63728 2.65672 7.5564 2.62293C7.47552 2.58914 7.38876 2.57174 7.30114 2.57174C7.21352 2.57174 7.12676 2.58914 7.04588 2.62293C6.965 2.65672 6.89159 2.70623 6.82988 2.76862V2.76862ZM11.2238 5.10475C11.0488 5.11999 10.8869 5.20421 10.7737 5.33896C10.6604 5.47371 10.6051 5.64798 10.6198 5.82356C10.6232 5.88563 10.6232 5.94784 10.6198 6.00992C10.6198 7.24555 10.1303 8.43057 9.259 9.30429C8.38768 10.178 7.2059 10.6689 5.97366 10.6689H2.26335L2.68815 10.2496C2.81177 10.1249 2.88116 9.95617 2.88116 9.78034C2.88116 9.60451 2.81177 9.43582 2.68815 9.31112C2.09454 8.7191 1.67149 7.97723 1.46372 7.16397C1.25596 6.3507 1.2712 5.49625 1.50784 4.69096C1.74449 3.88567 2.19373 3.15945 2.80808 2.5891C3.42243 2.01875 4.17906 1.62546 4.99796 1.4508C5.61138 1.3278 6.24302 1.3278 6.85643 1.4508C6.9436 1.46828 7.03334 1.46837 7.12054 1.45108C7.20774 1.43378 7.29069 1.39943 7.36465 1.34998C7.43861 1.30054 7.50214 1.23698 7.5516 1.16291C7.60106 1.08885 7.63549 1.00575 7.65292 0.918347C7.67035 0.830943 7.67045 0.740953 7.6532 0.653513C7.63595 0.566074 7.60169 0.482898 7.55238 0.408733C7.50308 0.334569 7.43969 0.27087 7.36583 0.221272C7.29197 0.171674 7.20909 0.13715 7.12193 0.119669C6.33115 -0.0398897 5.5166 -0.0398897 4.72583 0.119669C3.38587 0.412961 2.18634 1.15723 1.32662 2.22878C0.466903 3.30033 -0.00123863 4.63463 2.46136e-06 6.00992C0.00557822 7.37181 0.473804 8.69114 1.32748 9.75039L0.192487 10.8619C0.100388 10.9555 0.037999 11.0743 0.0131923 11.2034C-0.0116144 11.3326 0.00227278 11.4661 0.0531016 11.5873C0.102895 11.7089 0.187454 11.8129 0.296122 11.8864C0.40479 11.9598 0.532703 11.9993 0.663742 12H5.97366C7.55797 12 9.0774 11.3689 10.1977 10.2455C11.318 9.12219 11.9473 7.59859 11.9473 6.00992V5.71707C11.9406 5.62895 11.9165 5.54305 11.8764 5.46437C11.8363 5.3857 11.7809 5.31582 11.7136 5.25882C11.6462 5.20183 11.5683 5.15885 11.4842 5.13239C11.4001 5.10594 11.3116 5.09654 11.2238 5.10475Z" fill="white"/>
</svg>
