<svg width="9" height="11" viewBox="0 0 9 11" fill="none" xmlns="http://www.w3.org/2000/svg">
<path d="M7.68668 1.36274C6.84225 0.490193 5.69696 -9.1938e-09 4.50276 0C3.30855 9.1938e-09 2.16326 0.490193 1.31883 1.36274C0.474396 2.23529 8.89752e-09 3.41872 0 4.6527C-8.89752e-09 5.88667 0.474396 7.0701 1.31883 7.94265L4.11538 10.8378C4.16471 10.8892 4.2234 10.93 4.28807 10.9578C4.35273 10.9857 4.42209 11 4.49214 11C4.56219 11 4.63155 10.9857 4.69622 10.9578C4.76088 10.93 4.81958 10.8892 4.86891 10.8378L7.68668 7.91523C8.52759 7.04631 9 5.86781 9 4.63899C9 3.41016 8.52759 2.23166 7.68668 1.36274V1.36274ZM6.92785 7.13113L4.50276 9.64794L2.07766 7.13113C1.59856 6.63561 1.27238 6.00445 1.14036 5.31743C1.00835 4.6304 1.07642 3.91835 1.33597 3.27129C1.59552 2.62423 2.0349 2.07121 2.59857 1.68213C3.16224 1.29305 3.82489 1.08539 4.50276 1.08539C5.18062 1.08539 5.84327 1.29305 6.40694 1.68213C6.97061 2.07121 7.40999 2.62423 7.66954 3.27129C7.92909 3.91835 7.99716 4.6304 7.86515 5.31743C7.73313 6.00445 7.40695 6.63561 6.92785 7.13113V7.13113ZM2.91079 2.96934C2.4824 3.41335 2.24184 4.01476 2.24184 4.64173C2.24184 5.2687 2.4824 5.8701 2.91079 6.31412C3.22906 6.64355 3.63439 6.86852 4.07592 6.96082C4.51746 7.05311 4.97554 7.00862 5.3927 6.83292C5.80986 6.65722 6.16752 6.35814 6.4208 5.9732C6.67408 5.58826 6.81171 5.1346 6.81641 4.66915C6.8188 4.35836 6.76086 4.05023 6.64602 3.76298C6.53118 3.47572 6.36176 3.21518 6.14779 2.99675C5.93747 2.77445 5.68669 2.59732 5.40987 2.47555C5.13305 2.35378 4.83566 2.28978 4.53481 2.28724C4.23396 2.28469 3.93559 2.34364 3.65688 2.4607C3.37816 2.57777 3.1246 2.75063 2.91079 2.96934V2.96934ZM5.39956 5.5355C5.19847 5.74646 4.9327 5.8787 4.64769 5.9096C4.36269 5.94049 4.07614 5.86814 3.83705 5.70489C3.59796 5.54165 3.42117 5.29766 3.33691 5.01464C3.25265 4.73161 3.26614 4.42713 3.37509 4.15326C3.48404 3.87938 3.68167 3.65311 3.9342 3.51313C4.18673 3.37315 4.47848 3.32816 4.75956 3.38585C5.04064 3.44354 5.2936 3.60033 5.47519 3.8294C5.65678 4.05848 5.75572 4.34562 5.7551 4.64173C5.74738 4.98019 5.60996 5.30165 5.37303 5.5355H5.39956Z" fill="#18ACFF"/>
</svg>
