<svg width="12" height="12" viewBox="0 0 12 12" fill="none" xmlns="http://www.w3.org/2000/svg">
<path d="M6.82988 2.76914C6.76767 2.83101 6.71829 2.90462 6.6846 2.98573C6.6509 3.06683 6.63355 3.15382 6.63355 3.24169C6.63355 3.32955 6.6509 3.41654 6.6846 3.49765C6.71829 3.57875 6.76767 3.65236 6.82988 3.71424L8.10426 4.99212C8.16597 5.0545 8.23938 5.10402 8.32026 5.13781C8.40114 5.1716 8.4879 5.18899 8.57552 5.18899C8.66314 5.18899 8.7499 5.1716 8.83078 5.13781C8.91166 5.10402 8.98507 5.0545 9.04677 4.99212L11.7548 2.27662C11.8274 2.21748 11.8867 2.14363 11.9288 2.05991C11.971 1.97619 11.995 1.88448 11.9993 1.79081C12.0036 1.69713 11.9881 1.6036 11.9539 1.51634C11.9196 1.42908 11.8674 1.35006 11.8006 1.28446C11.7337 1.21886 11.6538 1.16817 11.5661 1.13569C11.4784 1.10322 11.3848 1.08971 11.2915 1.09603C11.1982 1.10236 11.1072 1.12839 11.0247 1.17241C10.9421 1.21644 10.8697 1.27746 10.8123 1.35148L8.57552 3.58112L7.77239 2.76914C7.71069 2.70675 7.63728 2.65724 7.5564 2.62345C7.47552 2.58966 7.38876 2.57226 7.30114 2.57226C7.21352 2.57226 7.12676 2.58966 7.04588 2.62345C6.965 2.65724 6.89159 2.70675 6.82988 2.76914V2.76914ZM11.2238 5.10527C11.0488 5.12051 10.8869 5.20473 10.7737 5.33948C10.6604 5.47423 10.6051 5.6485 10.6198 5.82408C10.6232 5.88615 10.6232 5.94836 10.6198 6.01044C10.6198 7.24607 10.1303 8.43109 9.259 9.30481C8.38768 10.1785 7.2059 10.6694 5.97366 10.6694H2.26335L2.68815 10.2501C2.81177 10.1254 2.88116 9.95669 2.88116 9.78086C2.88116 9.60503 2.81177 9.43634 2.68815 9.31164C2.09454 8.71961 1.67149 7.97775 1.46372 7.16449C1.25596 6.35122 1.2712 5.49677 1.50784 4.69148C1.74449 3.88618 2.19373 3.15997 2.80808 2.58962C3.42243 2.01927 4.17906 1.62597 4.99796 1.45132C5.61138 1.32832 6.24302 1.32832 6.85643 1.45132C6.9436 1.4688 7.03334 1.46889 7.12054 1.45159C7.20774 1.4343 7.29069 1.39995 7.36465 1.3505C7.43861 1.30106 7.50214 1.23749 7.5516 1.16343C7.60106 1.08937 7.63549 1.00627 7.65292 0.918865C7.67035 0.831462 7.67045 0.741472 7.6532 0.654032C7.63595 0.566593 7.60169 0.483416 7.55238 0.409252C7.50308 0.335088 7.43969 0.271389 7.36583 0.221791C7.29197 0.172193 7.20909 0.137668 7.12193 0.120188C6.33115 -0.0393709 5.5166 -0.0393709 4.72583 0.120188C3.38587 0.41348 2.18634 1.15775 1.32662 2.2293C0.466903 3.30085 -0.00123863 4.63515 2.46136e-06 6.01044C0.00557822 7.37233 0.473804 8.69166 1.32748 9.75091L0.192487 10.8624C0.100388 10.956 0.037999 11.0748 0.0131923 11.204C-0.0116144 11.3331 0.00227278 11.4667 0.0531016 11.5879C0.102895 11.7094 0.187454 11.8135 0.296122 11.8869C0.40479 11.9603 0.532703 11.9999 0.663742 12.0005H5.97366C7.55797 12.0005 9.0774 11.3694 10.1977 10.2461C11.318 9.12271 11.9473 7.5991 11.9473 6.01044V5.71759C11.9406 5.62947 11.9165 5.54357 11.8764 5.46489C11.8363 5.38622 11.7809 5.31634 11.7136 5.25934C11.6462 5.20234 11.5683 5.15937 11.4842 5.13291C11.4001 5.10646 11.3116 5.09706 11.2238 5.10527Z" fill="white"/>
</svg>
