<svg width="9" height="11" viewBox="0 0 9 11" fill="none" xmlns="http://www.w3.org/2000/svg">
<path d="M7.68668 1.36323C6.84225 0.490682 5.69696 0.000488272 4.50276 0.000488281C3.30855 0.00048829 2.16326 0.490682 1.31883 1.36323C0.474396 2.23578 8.89752e-09 3.41921 0 4.65318C-8.89752e-09 5.88716 0.474396 7.07059 1.31883 7.94314L4.11538 10.8383C4.16471 10.8897 4.2234 10.9305 4.28807 10.9583C4.35273 10.9862 4.42209 11.0005 4.49214 11.0005C4.56219 11.0005 4.63155 10.9862 4.69622 10.9583C4.76088 10.9305 4.81958 10.8897 4.86891 10.8383L7.68668 7.91572C8.52759 7.0468 9 5.8683 9 4.63948C9 3.41065 8.52759 2.23215 7.68668 1.36323V1.36323ZM6.92785 7.13161L4.50276 9.64843L2.07766 7.13161C1.59856 6.6361 1.27238 6.00494 1.14036 5.31791C1.00835 4.63089 1.07642 3.91884 1.33597 3.27178C1.59552 2.62472 2.0349 2.07169 2.59857 1.68262C3.16224 1.29354 3.82489 1.08588 4.50276 1.08588C5.18062 1.08588 5.84327 1.29354 6.40694 1.68262C6.97061 2.07169 7.40999 2.62472 7.66954 3.27178C7.92909 3.91884 7.99716 4.63089 7.86515 5.31791C7.73313 6.00494 7.40695 6.6361 6.92785 7.13161V7.13161ZM2.91079 2.96982C2.4824 3.41384 2.24184 4.01524 2.24184 4.64222C2.24184 5.26919 2.4824 5.87059 2.91079 6.31461C3.22906 6.64404 3.63439 6.86901 4.07592 6.96131C4.51746 7.0536 4.97554 7.00911 5.3927 6.83341C5.80986 6.65771 6.16752 6.35863 6.4208 5.97369C6.67408 5.58875 6.81171 5.13509 6.81641 4.66963C6.8188 4.35885 6.76086 4.05072 6.64602 3.76346C6.53118 3.47621 6.36176 3.21567 6.14779 2.99724C5.93747 2.77494 5.68669 2.59781 5.40987 2.47604C5.13305 2.35427 4.83566 2.29027 4.53481 2.28772C4.23396 2.28518 3.93559 2.34413 3.65688 2.46119C3.37816 2.57825 3.1246 2.75111 2.91079 2.96982V2.96982ZM5.39956 5.53599C5.19847 5.74695 4.9327 5.87919 4.64769 5.91008C4.36269 5.94098 4.07614 5.86862 3.83705 5.70538C3.59796 5.54214 3.42117 5.29815 3.33691 5.01512C3.25265 4.7321 3.26614 4.42762 3.37509 4.15374C3.48404 3.87987 3.68167 3.6536 3.9342 3.51362C4.18673 3.37364 4.47848 3.32865 4.75956 3.38634C5.04064 3.44403 5.2936 3.60081 5.47519 3.82989C5.65678 4.05897 5.75572 4.34611 5.7551 4.64222C5.74738 4.98068 5.60996 5.30214 5.37303 5.53599H5.39956Z" fill="#18ACFF"/>
</svg>
