<svg width="13" height="13" viewBox="0 0 13 13" fill="none" xmlns="http://www.w3.org/2000/svg">
<path d="M5.85 4.55H8.45C8.62239 4.55 8.78772 4.48152 8.90962 4.35962C9.03152 4.23772 9.1 4.07239 9.1 3.9C9.1 3.72761 9.03152 3.56228 8.90962 3.44038C8.78772 3.31848 8.62239 3.25 8.45 3.25H7.15V2.6C7.15 2.42761 7.08152 2.26228 6.95962 2.14038C6.83772 2.01848 6.67239 1.95 6.5 1.95C6.32761 1.95 6.16228 2.01848 6.04038 2.14038C5.91848 2.26228 5.85 2.42761 5.85 2.6V3.25C5.33283 3.25 4.83684 3.45545 4.47114 3.82114C4.10545 4.18684 3.9 4.68283 3.9 5.2C3.9 5.71717 4.10545 6.21316 4.47114 6.57886C4.83684 6.94455 5.33283 7.15 5.85 7.15H7.15C7.32239 7.15 7.48772 7.21848 7.60962 7.34038C7.73152 7.46228 7.8 7.62761 7.8 7.8C7.8 7.97239 7.73152 8.13772 7.60962 8.25962C7.48772 8.38152 7.32239 8.45 7.15 8.45H4.55C4.37761 8.45 4.21228 8.51848 4.09038 8.64038C3.96848 8.76228 3.9 8.92761 3.9 9.1C3.9 9.27239 3.96848 9.43772 4.09038 9.55962C4.21228 9.68152 4.37761 9.75 4.55 9.75H5.85V10.4C5.85 10.5724 5.91848 10.7377 6.04038 10.8596C6.16228 10.9815 6.32761 11.05 6.5 11.05C6.67239 11.05 6.83772 10.9815 6.95962 10.8596C7.08152 10.7377 7.15 10.5724 7.15 10.4V9.75C7.66717 9.75 8.16316 9.54455 8.52886 9.17886C8.89455 8.81316 9.1 8.31717 9.1 7.8C9.1 7.28283 8.89455 6.78684 8.52886 6.42114C8.16316 6.05545 7.66717 5.85 7.15 5.85H5.85C5.67761 5.85 5.51228 5.78152 5.39038 5.65962C5.26848 5.53772 5.2 5.37239 5.2 5.2C5.2 5.02761 5.26848 4.86228 5.39038 4.74038C5.51228 4.61848 5.67761 4.55 5.85 4.55V4.55ZM11.05 0H1.95C1.43283 0 0.936838 0.205446 0.571142 0.571142C0.205446 0.936838 0 1.43283 0 1.95V11.05C0 11.5672 0.205446 12.0632 0.571142 12.4289C0.936838 12.7946 1.43283 13 1.95 13H11.05C11.5672 13 12.0632 12.7946 12.4289 12.4289C12.7946 12.0632 13 11.5672 13 11.05V1.95C13 1.43283 12.7946 0.936838 12.4289 0.571142C12.0632 0.205446 11.5672 0 11.05 0ZM11.7 11.05C11.7 11.2224 11.6315 11.3877 11.5096 11.5096C11.3877 11.6315 11.2224 11.7 11.05 11.7H1.95C1.77761 11.7 1.61228 11.6315 1.49038 11.5096C1.36848 11.3877 1.3 11.2224 1.3 11.05V1.95C1.3 1.77761 1.36848 1.61228 1.49038 1.49038C1.61228 1.36848 1.77761 1.3 1.95 1.3H11.05C11.2224 1.3 11.3877 1.36848 11.5096 1.49038C11.6315 1.61228 11.7 1.77761 11.7 1.95V11.05Z" fill="#2C4EAB"/>
</svg>
