<svg width="9" height="11" viewBox="0 0 9 11" fill="none" xmlns="http://www.w3.org/2000/svg">
<path d="M7.68668 1.36326C6.84225 0.490712 5.69696 0.00051879 4.50276 0.000518799C3.30855 0.000518808 2.16326 0.490712 1.31883 1.36326C0.474396 2.23581 8.89752e-09 3.41924 0 4.65321C-8.89752e-09 5.88719 0.474396 7.07062 1.31883 7.94317L4.11538 10.8383C4.16471 10.8897 4.2234 10.9305 4.28807 10.9583C4.35273 10.9862 4.42209 11.0005 4.49214 11.0005C4.56219 11.0005 4.63155 10.9862 4.69622 10.9583C4.76088 10.9305 4.81958 10.8897 4.86891 10.8383L7.68668 7.91575C8.52759 7.04683 9 5.86833 9 4.63951C9 3.41068 8.52759 2.23218 7.68668 1.36326V1.36326ZM6.92785 7.13165L4.50276 9.64846L2.07766 7.13165C1.59856 6.63613 1.27238 6.00497 1.14036 5.31794C1.00835 4.63092 1.07642 3.91887 1.33597 3.27181C1.59552 2.62475 2.0349 2.07173 2.59857 1.68265C3.16224 1.29357 3.82489 1.08591 4.50276 1.08591C5.18062 1.08591 5.84327 1.29357 6.40694 1.68265C6.97061 2.07173 7.40999 2.62475 7.66954 3.27181C7.92909 3.91887 7.99716 4.63092 7.86515 5.31794C7.73313 6.00497 7.40695 6.63613 6.92785 7.13165V7.13165ZM2.91079 2.96986C2.4824 3.41387 2.24184 4.01527 2.24184 4.64225C2.24184 5.26922 2.4824 5.87062 2.91079 6.31464C3.22906 6.64407 3.63439 6.86904 4.07592 6.96134C4.51746 7.05363 4.97554 7.00914 5.3927 6.83344C5.80986 6.65774 6.16752 6.35866 6.4208 5.97372C6.67408 5.58878 6.81171 5.13512 6.81641 4.66966C6.8188 4.35888 6.76086 4.05075 6.64602 3.76349C6.53118 3.47624 6.36176 3.2157 6.14779 2.99727C5.93747 2.77497 5.68669 2.59784 5.40987 2.47607C5.13305 2.3543 4.83566 2.2903 4.53481 2.28775C4.23396 2.28521 3.93559 2.34416 3.65688 2.46122C3.37816 2.57828 3.1246 2.75114 2.91079 2.96986V2.96986ZM5.39956 5.53602C5.19847 5.74698 4.9327 5.87922 4.64769 5.91011C4.36269 5.94101 4.07614 5.86865 3.83705 5.70541C3.59796 5.54217 3.42117 5.29818 3.33691 5.01515C3.25265 4.73213 3.26614 4.42765 3.37509 4.15377C3.48404 3.8799 3.68167 3.65363 3.9342 3.51365C4.18673 3.37367 4.47848 3.32868 4.75956 3.38637C5.04064 3.44406 5.2936 3.60085 5.47519 3.82992C5.65678 4.059 5.75572 4.34614 5.7551 4.64225C5.74738 4.98071 5.60996 5.30217 5.37303 5.53602H5.39956Z" fill="#18ACFF"/>
</svg>
