<svg width="9" height="11" viewBox="0 0 9 11" fill="none" xmlns="http://www.w3.org/2000/svg">
<path d="M7.68668 1.36299C6.84225 0.490437 5.69696 0.000244131 4.50276 0.000244141C3.30855 0.00024415 2.16326 0.490437 1.31883 1.36299C0.474396 2.23554 8.89752e-09 3.41897 0 4.65294C-8.89752e-09 5.88691 0.474396 7.07034 1.31883 7.94289L4.11538 10.8381C4.16471 10.8894 4.2234 10.9302 4.28807 10.9581C4.35273 10.9859 4.42209 11.0002 4.49214 11.0002C4.56219 11.0002 4.63155 10.9859 4.69622 10.9581C4.76088 10.9302 4.81958 10.8894 4.86891 10.8381L7.68668 7.91548C8.52759 7.04656 9 5.86806 9 4.63923C9 3.4104 8.52759 2.23191 7.68668 1.36299V1.36299ZM6.92785 7.13137L4.50276 9.64818L2.07766 7.13137C1.59856 6.63586 1.27238 6.0047 1.14036 5.31767C1.00835 4.63064 1.07642 3.91859 1.33597 3.27153C1.59552 2.62447 2.0349 2.07145 2.59857 1.68237C3.16224 1.2933 3.82489 1.08563 4.50276 1.08563C5.18062 1.08563 5.84327 1.2933 6.40694 1.68237C6.97061 2.07145 7.40999 2.62447 7.66954 3.27153C7.92909 3.91859 7.99716 4.63064 7.86515 5.31767C7.73313 6.0047 7.40695 6.63586 6.92785 7.13137V7.13137ZM2.91079 2.96958C2.4824 3.4136 2.24184 4.015 2.24184 4.64197C2.24184 5.26895 2.4824 5.87035 2.91079 6.31437C3.22906 6.64379 3.63439 6.86877 4.07592 6.96106C4.51746 7.05336 4.97554 7.00887 5.3927 6.83317C5.80986 6.65747 6.16752 6.35838 6.4208 5.97344C6.67408 5.5885 6.81171 5.13485 6.81641 4.66939C6.8188 4.3586 6.76086 4.05047 6.64602 3.76322C6.53118 3.47597 6.36176 3.21543 6.14779 2.997C5.93747 2.77469 5.68669 2.59756 5.40987 2.47579C5.13305 2.35403 4.83566 2.29003 4.53481 2.28748C4.23396 2.28493 3.93559 2.34388 3.65688 2.46095C3.37816 2.57801 3.1246 2.75087 2.91079 2.96958V2.96958ZM5.39956 5.53574C5.19847 5.74671 4.9327 5.87894 4.64769 5.90984C4.36269 5.94074 4.07614 5.86838 3.83705 5.70514C3.59796 5.54189 3.42117 5.2979 3.33691 5.01488C3.25265 4.73186 3.26614 4.42738 3.37509 4.1535C3.48404 3.87962 3.68167 3.65335 3.9342 3.51337C4.18673 3.3734 4.47848 3.32841 4.75956 3.3861C5.04064 3.44379 5.2936 3.60057 5.47519 3.82965C5.65678 4.05872 5.75572 4.34586 5.7551 4.64197C5.74738 4.98044 5.60996 5.3019 5.37303 5.53574H5.39956Z" fill="#18ACFF"/>
</svg>
