<svg width="13" height="9" viewBox="0 0 13 9" fill="none" xmlns="http://www.w3.org/2000/svg">
<path d="M11.999 3.2532H2.72469L4.56515 1.39258C4.63976 1.31682 4.69894 1.22689 4.73932 1.12791C4.7797 1.02892 4.80048 0.922838 4.80048 0.815702C4.80048 0.708567 4.7797 0.60248 4.73932 0.5035C4.69894 0.40452 4.63976 0.314584 4.56515 0.238827C4.49054 0.163071 4.40197 0.102978 4.30448 0.0619791C4.207 0.02098 4.10252 -0.000122071 3.99701 -0.00012207C3.89149 -0.00012207 3.78701 0.02098 3.68953 0.0619791C3.59205 0.102978 3.50348 0.163071 3.42887 0.238827L0.228068 3.48883C0.155217 3.5661 0.0981108 3.65722 0.0600258 3.75695C-0.0200086 3.95476 -0.0200086 4.17664 0.0600258 4.37445C0.0981108 4.47419 0.155217 4.56531 0.228068 4.64258L3.42887 7.89258C3.50325 7.96873 3.59176 8.02918 3.68927 8.07043C3.78678 8.11168 3.89137 8.13291 3.99701 8.13291C4.10264 8.13291 4.20723 8.11168 4.30475 8.07043C4.40226 8.02918 4.49076 7.96873 4.56515 7.89258C4.64015 7.81704 4.69968 7.72718 4.74031 7.62817C4.78093 7.52916 4.80185 7.42296 4.80185 7.3157C4.80185 7.20844 4.78093 7.10224 4.74031 7.00323C4.69968 6.90422 4.64015 6.81436 4.56515 6.73883L2.72469 4.8782H11.999C12.2112 4.8782 12.4148 4.7926 12.5648 4.64023C12.7149 4.48785 12.7992 4.28119 12.7992 4.0657C12.7992 3.85021 12.7149 3.64355 12.5648 3.49118C12.4148 3.33881 12.2112 3.2532 11.999 3.2532Z" fill="#93BACE"/>
</svg>
