<svg width="13" height="13" viewBox="0 0 13 13" fill="none" xmlns="http://www.w3.org/2000/svg">
<path d="M5.85 4.54976H8.45C8.62239 4.54976 8.78772 4.48127 8.90962 4.35937C9.03152 4.23748 9.1 4.07215 9.1 3.89976C9.1 3.72736 9.03152 3.56204 8.90962 3.44014C8.78772 3.31824 8.62239 3.24976 8.45 3.24976H7.15V2.59976C7.15 2.42737 7.08152 2.26204 6.95962 2.14014C6.83772 2.01824 6.67239 1.94976 6.5 1.94976C6.32761 1.94976 6.16228 2.01824 6.04038 2.14014C5.91848 2.26204 5.85 2.42737 5.85 2.59976V3.24976C5.33283 3.24976 4.83684 3.4552 4.47114 3.8209C4.10545 4.18659 3.9 4.68258 3.9 5.19976C3.9 5.71693 4.10545 6.21292 4.47114 6.57861C4.83684 6.94431 5.33283 7.14976 5.85 7.14976H7.15C7.32239 7.14976 7.48772 7.21824 7.60962 7.34014C7.73152 7.46203 7.8 7.62736 7.8 7.79976C7.8 7.97215 7.73152 8.13748 7.60962 8.25937C7.48772 8.38127 7.32239 8.44976 7.15 8.44976H4.55C4.37761 8.44976 4.21228 8.51824 4.09038 8.64014C3.96848 8.76203 3.9 8.92736 3.9 9.09976C3.9 9.27215 3.96848 9.43748 4.09038 9.55938C4.21228 9.68127 4.37761 9.74976 4.55 9.74976H5.85V10.3998C5.85 10.5721 5.91848 10.7375 6.04038 10.8594C6.16228 10.9813 6.32761 11.0498 6.5 11.0498C6.67239 11.0498 6.83772 10.9813 6.95962 10.8594C7.08152 10.7375 7.15 10.5721 7.15 10.3998V9.74976C7.66717 9.74976 8.16316 9.54431 8.52886 9.17861C8.89455 8.81292 9.1 8.31693 9.1 7.79976C9.1 7.28258 8.89455 6.78659 8.52886 6.4209C8.16316 6.0552 7.66717 5.84976 7.15 5.84976H5.85C5.67761 5.84976 5.51228 5.78127 5.39038 5.65937C5.26848 5.53748 5.2 5.37215 5.2 5.19976C5.2 5.02736 5.26848 4.86204 5.39038 4.74014C5.51228 4.61824 5.67761 4.54976 5.85 4.54976V4.54976ZM11.05 -0.000244141H1.95C1.43283 -0.000244141 0.936838 0.205202 0.571142 0.570898C0.205446 0.936594 0 1.43258 0 1.94976V11.0498C0 11.5669 0.205446 12.0629 0.571142 12.4286C0.936838 12.7943 1.43283 12.9998 1.95 12.9998H11.05C11.5672 12.9998 12.0632 12.7943 12.4289 12.4286C12.7946 12.0629 13 11.5669 13 11.0498V1.94976C13 1.43258 12.7946 0.936594 12.4289 0.570898C12.0632 0.205202 11.5672 -0.000244141 11.05 -0.000244141ZM11.7 11.0498C11.7 11.2221 11.6315 11.3875 11.5096 11.5094C11.3877 11.6313 11.2224 11.6998 11.05 11.6998H1.95C1.77761 11.6998 1.61228 11.6313 1.49038 11.5094C1.36848 11.3875 1.3 11.2221 1.3 11.0498V1.94976C1.3 1.77737 1.36848 1.61204 1.49038 1.49014C1.61228 1.36824 1.77761 1.29976 1.95 1.29976H11.05C11.2224 1.29976 11.3877 1.36824 11.5096 1.49014C11.6315 1.61204 11.7 1.77737 11.7 1.94976V11.0498Z" fill="#C23B3B"/>
</svg>
