<svg width="12" height="12" viewBox="0 0 12 12" fill="none" xmlns="http://www.w3.org/2000/svg">
<path d="M6.82988 2.7691C6.76767 2.83098 6.71829 2.90459 6.6846 2.9857C6.6509 3.0668 6.63355 3.15379 6.63355 3.24166C6.63355 3.32952 6.6509 3.41651 6.6846 3.49762C6.71829 3.57872 6.76767 3.65233 6.82988 3.71421L8.10426 4.99209C8.16597 5.05447 8.23938 5.10399 8.32026 5.13778C8.40114 5.17157 8.4879 5.18896 8.57552 5.18896C8.66314 5.18896 8.7499 5.17157 8.83078 5.13778C8.91166 5.10399 8.98507 5.05447 9.04677 4.99209L11.7548 2.27659C11.8274 2.21745 11.8867 2.1436 11.9288 2.05988C11.971 1.97616 11.995 1.88445 11.9993 1.79078C12.0036 1.6971 11.9881 1.60357 11.9539 1.51631C11.9196 1.42905 11.8674 1.35003 11.8006 1.28443C11.7337 1.21883 11.6538 1.16813 11.5661 1.13566C11.4784 1.10319 11.3848 1.08968 11.2915 1.096C11.1982 1.10233 11.1072 1.12836 11.0247 1.17238C10.9421 1.21641 10.8697 1.27743 10.8123 1.35145L8.57552 3.58109L7.77239 2.7691C7.71069 2.70672 7.63728 2.65721 7.5564 2.62342C7.47552 2.58963 7.38876 2.57223 7.30114 2.57223C7.21352 2.57223 7.12676 2.58963 7.04588 2.62342C6.965 2.65721 6.89159 2.70672 6.82988 2.7691V2.7691ZM11.2238 5.10524C11.0488 5.12048 10.8869 5.2047 10.7737 5.33945C10.6604 5.4742 10.6051 5.64846 10.6198 5.82405C10.6232 5.88612 10.6232 5.94833 10.6198 6.01041C10.6198 7.24604 10.1303 8.43106 9.259 9.30478C8.38768 10.1785 7.2059 10.6694 5.97366 10.6694H2.26335L2.68815 10.2501C2.81177 10.1254 2.88116 9.95666 2.88116 9.78083C2.88116 9.605 2.81177 9.43631 2.68815 9.31161C2.09454 8.71958 1.67149 7.97772 1.46372 7.16446C1.25596 6.35119 1.2712 5.49674 1.50784 4.69145C1.74449 3.88615 2.19373 3.15994 2.80808 2.58959C3.42243 2.01924 4.17906 1.62594 4.99796 1.45129C5.61138 1.32829 6.24302 1.32829 6.85643 1.45129C6.9436 1.46877 7.03334 1.46886 7.12054 1.45156C7.20774 1.43427 7.29069 1.39992 7.36465 1.35047C7.43861 1.30103 7.50214 1.23746 7.5516 1.1634C7.60106 1.08934 7.63549 1.00624 7.65292 0.918835C7.67035 0.831432 7.67045 0.741441 7.6532 0.654002C7.63595 0.566562 7.60169 0.483386 7.55238 0.409222C7.50308 0.335058 7.43969 0.271358 7.36583 0.22176C7.29197 0.172163 7.20909 0.137638 7.12193 0.120157C6.33115 -0.0394014 5.5166 -0.0394014 4.72583 0.120157C3.38587 0.41345 2.18634 1.15772 1.32662 2.22927C0.466903 3.30082 -0.00123863 4.63512 2.46136e-06 6.01041C0.00557822 7.3723 0.473804 8.69163 1.32748 9.75088L0.192487 10.8624C0.100388 10.956 0.037999 11.0748 0.0131923 11.2039C-0.0116144 11.333 0.00227278 11.4666 0.0531016 11.5878C0.102895 11.7094 0.187454 11.8134 0.296122 11.8869C0.40479 11.9603 0.532703 11.9998 0.663742 12.0005H5.97366C7.55797 12.0005 9.0774 11.3694 10.1977 10.246C11.318 9.12267 11.9473 7.59907 11.9473 6.01041V5.71756C11.9406 5.62944 11.9165 5.54354 11.8764 5.46486C11.8363 5.38619 11.7809 5.31631 11.7136 5.25931C11.6462 5.20231 11.5683 5.15933 11.4842 5.13288C11.4001 5.10643 11.3116 5.09703 11.2238 5.10524Z" fill="white"/>
</svg>
