<svg width="18" height="21" viewBox="0 0 18 21" fill="none" xmlns="http://www.w3.org/2000/svg">
<path opacity="0.4" fill-rule="evenodd" clip-rule="evenodd" d="M2.46436 9.93201C2.46436 9.51779 2.12857 9.18201 1.71436 9.18201C1.30014 9.18201 0.964355 9.51779 0.964355 9.93201C0.964355 14.183 4.21628 17.6735 8.36855 18.0518V20.1469C8.36855 20.5611 8.70433 20.8969 9.11855 20.8969C9.53276 20.8969 9.86855 20.5611 9.86855 20.1469V18.0518C14.0205 17.6731 17.272 14.1828 17.272 9.93201C17.272 9.51779 16.9362 9.18201 16.522 9.18201C16.1078 9.18201 15.772 9.51779 15.772 9.93201C15.772 13.6073 12.7935 16.5858 9.11817 16.5858C5.44285 16.5858 2.46436 13.6073 2.46436 9.93201Z" fill="#A5B4CB"/>
<path fill-rule="evenodd" clip-rule="evenodd" d="M9.24466 13.5844H8.99228C6.97132 13.5844 5.33228 11.9463 5.33228 9.92438V5.37391C5.33228 3.35295 6.97132 1.71391 8.99228 1.71391H9.24466C11.2656 1.71391 12.9047 3.35295 12.9047 5.37391V9.92438C12.9047 11.9463 11.2656 13.5844 9.24466 13.5844Z" stroke="#A5B4CB" stroke-width="1.5" stroke-linecap="round" stroke-linejoin="round"/>
</svg>
